<svg viewBox="0 0 26 26" fill="none" xmlns="http://www.w3.org/2000/svg">
<path d="M7.67915 6.83062C7.44483 6.5963 7.06493 6.5963 6.83062 6.83062C6.5963 7.06493 6.5963 7.44483 6.83062 7.67915L7.67915 6.83062ZM18.3211 19.1696C18.5554 19.4039 18.9353 19.4039 19.1696 19.1696C19.4039 18.9353 19.4039 18.5554 19.1696 18.3211L18.3211 19.1696ZM6.83062 18.3211C6.5963 18.5554 6.5963 18.9353 6.83062 19.1696C7.06493 19.4039 7.44483 19.4039 7.67915 19.1696L6.83062 18.3211ZM19.1696 7.67915C19.4039 7.44483 19.4039 7.06493 19.1696 6.83062C18.9353 6.5963 18.5554 6.5963 18.3211 6.83062L19.1696 7.67915ZM6.83062 7.67915L18.3211 19.1696L19.1696 18.3211L7.67915 6.83062L6.83062 7.67915ZM7.67915 19.1696L19.1696 7.67915L18.3211 6.83062L6.83062 18.3211L7.67915 19.1696Z" fill="#181818"/>
</svg>
